<svg width="80" height="80" viewBox="0 0 25 25" xmlns="http://www.w3.org/2000/svg" transform="rotate(0 0 0)"><path d="M11.4116 7.64031C11.4116 8.13736 11.8146 8.54031 12.3116 8.54031C12.8087 8.54031 13.2126 8.13736 13.2126 7.64031C13.2126 7.14325 12.8097 6.74031 12.3126 6.74031C11.8156 6.74031 11.4116 7.14325 11.4116 7.64031Z"/><path d="M12.3126 17.4866C11.8984 17.4866 11.5626 17.1509 11.5626 16.7366V11.0601C11.5626 10.6459 11.8984 10.3101 12.3126 10.3101C12.7268 10.3101 13.0626 10.6459 13.0626 11.0601V16.7366C13.0626 17.1509 12.7268 17.4866 12.3126 17.4866Z"/><path fill-rule="evenodd" clip-rule="evenodd" d="M12.3125 2.11523C6.78965 2.11523 2.3125 6.59239 2.3125 12.1152C2.3125 17.6381 6.78965 22.1152 12.3125 22.1152C17.8353 22.1152 22.3125 17.6381 22.3125 12.1152C22.3125 6.59239 17.8353 2.11523 12.3125 2.11523ZM3.8125 12.1152C3.8125 7.42081 7.61808 3.61523 12.3125 3.61523C17.0069 3.61523 20.8125 7.42081 20.8125 12.1152C20.8125 16.8097 17.0069 20.6152 12.3125 20.6152C7.61808 20.6152 3.8125 16.8097 3.8125 12.1152Z"/></svg>