<svg id="Layer_1" data-name="Layer 1" xmlns="http://www.w3.org/2000/svg" viewBox="0 0 333.71 283.15"><path d="M250,105.07a91.56,91.56,0,1,0,91.48,91.64A91.52,91.52,0,0,0,250,105.07Zm57.2,100-48.7,48.7a11.91,11.91,0,0,1-16.69,0L193,205.05a11.89,11.89,0,0,1,0-16.69l48.7-48.7a11.9,11.9,0,0,1,16.68,0l48.86,48.7A11.91,11.91,0,0,1,307.2,205.05Z" transform="translate(-82.95 -105.07)" fill="#fff"/><path d="M126,344.41a23.13,23.13,0,0,0-6.39-3.24A75.48,75.48,0,0,0,112,339.1c-2.28-.52-4.3-1-6-1.4a25.37,25.37,0,0,1-4.41-1.44,7.79,7.79,0,0,1-2.72-1.91,4.15,4.15,0,0,1-.94-2.81,5,5,0,0,1,2.5-4.37,11.91,11.91,0,0,1,6.62-1.63,11.54,11.54,0,0,1,6.94,1.87,7.71,7.71,0,0,1,3.12,5.3h13a18.18,18.18,0,0,0-2.1-7.53,16.71,16.71,0,0,0-4.76-5.41,20.78,20.78,0,0,0-7-3.28,33.7,33.7,0,0,0-8.81-1.09,36.28,36.28,0,0,0-9,1.05,21.52,21.52,0,0,0-7.18,3.2,15.11,15.11,0,0,0-4.75,5.42,16.51,16.51,0,0,0-1.72,7.8,15.36,15.36,0,0,0,1.6,7.44,13.78,13.78,0,0,0,4.4,4.84,24.94,24.94,0,0,0,6.55,3.08c2.5.77,5.15,1.48,8,2.1,2.08.47,4,.92,5.61,1.37a21.6,21.6,0,0,1,4.21,1.52,6.91,6.91,0,0,1,2.61,2.1,5.19,5.19,0,0,1,.9,3.12,5.58,5.58,0,0,1-.82,3.08,6.43,6.43,0,0,1-2.22,2.11,11.07,11.07,0,0,1-3.2,1.2,17.5,17.5,0,0,1-3.74.39c-3.74,0-6.64-.72-8.69-2.18s-3.27-3.77-3.63-6.94H83a20.16,20.16,0,0,0,2,8.38,17.05,17.05,0,0,0,5.18,6.2,24.42,24.42,0,0,0,8,3.82,38.78,38.78,0,0,0,10.53,1.33,32.71,32.71,0,0,0,9.24-1.25,22.88,22.88,0,0,0,7.41-3.63,17.08,17.08,0,0,0,5-5.84,17.27,17.27,0,0,0,1.79-8,15.68,15.68,0,0,0-1.68-7.64A15.43,15.43,0,0,0,126,344.41Z" transform="translate(-82.95 -105.07)" fill="#fff"/><path d="M153.9,319.69h-12v13.25h-6.24v7.8h6.24V364a12.87,12.87,0,0,0,.93,5.26,8.55,8.55,0,0,0,2.65,3.35,10.19,10.19,0,0,0,4.1,1.79,25.1,25.1,0,0,0,5.26.51,35.09,35.09,0,0,0,4.29-.23l2.8-.39v-9.12h-.62c-.42.05-.88.09-1.4.11s-1,0-1.41,0a6,6,0,0,1-3.39-.82c-.81-.54-1.21-1.6-1.21-3.16V340.74H162v-7.8H153.9Z" transform="translate(-82.95 -105.07)" fill="#fff"/><path d="M185.25,334.11a14.7,14.7,0,0,0-4.84,6.24h-.23v-7.41H168.41v41.48h12.24V355.17q0-6.09,3-9.17a10.42,10.42,0,0,1,8-3,14.38,14.38,0,0,1,2.57.24h.32V332.55a7.42,7.42,0,0,0-2.58-.31A11.84,11.84,0,0,0,185.25,334.11Z" transform="translate(-82.95 -105.07)" fill="#fff"/><rect x="117.34" y="211.34" width="12.4" height="10.68" fill="#fff"/><rect x="117.42" y="227.87" width="12.24" height="41.48" fill="#fff"/><path d="M258.42,338a16.1,16.1,0,0,0-5.61-4.56,16.64,16.64,0,0,0-7.45-1.64,13.76,13.76,0,0,0-12.63,7.1h-.23v-5.93H220.72v55.28H233v-9.9c0-2.23,0-4.1-.11-5.61s-.17-2.65-.28-3.43h.16a12.64,12.64,0,0,0,5,4.75,15,15,0,0,0,7.29,1.72,17.79,17.79,0,0,0,7.52-1.56,16.16,16.16,0,0,0,5.77-4.41,20,20,0,0,0,3.67-6.94,30.36,30.36,0,0,0,1.28-9.16,29.51,29.51,0,0,0-1.24-8.77A21.65,21.65,0,0,0,258.42,338Zm-9.86,25a7.39,7.39,0,0,1-6.48,3.28,8.14,8.14,0,0,1-7.09-3.4,14.77,14.77,0,0,1-2.42-8.77,19.61,19.61,0,0,1,.59-4.91,12.64,12.64,0,0,1,1.75-4,8.53,8.53,0,0,1,2.93-2.68,8.28,8.28,0,0,1,4.09-1,7.37,7.37,0,0,1,6.7,3.47,16.79,16.79,0,0,1,2.19,9.08C250.82,357.82,250.06,360.78,248.56,363Z" transform="translate(-82.95 -105.07)" fill="#fff"/><path d="M308.13,345.57a20.41,20.41,0,0,0-5.15-8.49,20,20,0,0,0-6.28-3.9,23.22,23.22,0,0,0-16.64.27,20,20,0,0,0-6.71,4.64,21,21,0,0,0-4.36,7,23.58,23.58,0,0,0-1.56,8.69,23.92,23.92,0,0,0,1.52,8.66A19.9,19.9,0,0,0,280.21,374a23.86,23.86,0,0,0,9.12,1.67,25.41,25.41,0,0,0,7.26-1,19.25,19.25,0,0,0,5.73-2.73,17.27,17.27,0,0,0,4.13-4.14,16.7,16.7,0,0,0,2.46-5.1H297.05a7.16,7.16,0,0,1-2.84,3,9.43,9.43,0,0,1-4.72,1,9.06,9.06,0,0,1-6.94-2.65,12.89,12.89,0,0,1-3.12-7.33h30.26A35.07,35.07,0,0,0,308.13,345.57Zm-28.62,4.14a12.91,12.91,0,0,1,2.81-6.79q2.18-2.49,6.39-2.49a7.72,7.72,0,0,1,5.93,2.45,11,11,0,0,1,2.57,6.83Z" transform="translate(-82.95 -105.07)" fill="#fff"/><path d="M367.07,316.41h-15.9l-21.68,23.24c.1-1.56.21-3.57.31-6s.16-5,.16-7.68v-9.52H316.7v58H330V353.68l5.3-5.53L353,374.42h15.51l-23.78-34.69Z" transform="translate(-82.95 -105.07)" fill="#fff"/><rect x="290.2" y="211.34" width="12.4" height="10.68" fill="#fff"/><rect x="290.28" y="227.87" width="12.24" height="41.48" fill="#fff"/><path d="M416.66,340.74v-7.8h-8.11V319.69h-12v13.25h-6.23v7.8h6.23V364a12.86,12.86,0,0,0,.94,5.26,8.46,8.46,0,0,0,2.65,3.35,10.15,10.15,0,0,0,4.09,1.79,25.2,25.2,0,0,0,5.27.51,35.09,35.09,0,0,0,4.29-.23l2.8-.39v-9.12H416c-.42.05-.89.09-1.4.11s-1,0-1.41,0a6,6,0,0,1-3.39-.82c-.81-.54-1.21-1.6-1.21-3.16V340.74Z" transform="translate(-82.95 -105.07)" fill="#fff"/></svg>