<svg version="1.1" xmlns="http://www.w3.org/2000/svg" x="0" y="0" viewBox="0 0 1500 428" xml:space="preserve" style="height:64px"><path fill="#002D5D" d="m215.2 422.9-44.3-198.4c-.4-1.4-.7-3-1-4.6-.3-1.6-3.4-18.9-9.3-51.8h-.6l-4.1 22.9-6.8 33.5-45.8 198.4H69.7L0 130.1h28.1L68 300.7l18.6 89.1h1.8c3.5-25.7 9.3-55.6 17.1-89.6l39.9-170H175l40.2 170.6c3.1 12.8 8.8 42.5 16.8 89.1h1.8c.6-5.9 3.5-20.9 8.7-44.8 5.2-23.9 21.9-95.5 50.1-214.8h27.8l-72.1 292.8h-33.1zM495 349.5c0 24.7-7.1 44-21.3 57.9-14.2 13.9-34.7 20.9-61.5 20.9-14.6 0-27.4-1.7-38.4-5.1-11-3.4-19.6-7.2-25.7-11.3l12.3-21.3c8.3 5.1 5.9 3.6 16.6 7.4 12 4.2 24.3 6.1 36.9 6.1 16.5 0 29.6-4.9 39-14.8 9.5-9.9 14.2-23.1 14.2-39.7 0-13-3.4-23.9-10.2-32.8-6.8-8.9-19.8-19-38.9-30.4-21.9-12.6-36.8-22.7-44.8-30.2-8-7.6-14.2-16-18.6-25.4-4.4-9.4-6.6-20.5-6.6-33.5 0-21.1 7.8-38.5 23.3-52.2 15.6-13.8 35.4-20.6 59.4-20.6 25.8 0 45.2 6.7 62.6 17.8L481 163.6c-16.2-9.9-33.3-14.8-51.4-14.8-16.6 0-29.8 4.5-39.6 13.4-9.9 8.9-14.8 20.6-14.8 35.2 0 13 3.3 23.8 10 32.5s20.9 19.3 42.6 31.7c21.3 12.8 35.9 23 43.7 30.6 7.9 7.6 13.7 16.1 17.6 25.4 4 9.2 5.9 19.9 5.9 31.9z"/><path fill="#ACA199" d="M643.8 152.8h-50.2V423h-27.8V152.8H525l.2-22.3h40.3l.3-25.5c0-37.2 3.6-60.9 13.4-77.2C589.5 10.7 606.6 0 630.5 0h28.9v23.6c-6.4 0-18.9.2-27.3.4-13.9.2-20.1 4.5-25.1 9.7-4.9 5.2-7.5 11.5-9.9 23.2-2.4 11.7-3.5 27.9-3.5 48.6v24.6h50.2v22.7zM857.1 275.8c0 49.3-8.5 87-25.6 113.2-17 26.2-41.4 39.3-73.1 39.3-31.3 0-55.3-13.1-72-39.3-16.7-26.2-25-63.9-25-113.2 0-100.9 32.7-151.4 98.1-151.4 30.7 0 54.7 13.2 71.8 39.7 17.2 26.4 25.8 63.7 25.8 111.7zm-166.4 0c0 42.3 5.5 74.2 16.6 95.8 11 21.6 28.3 32.4 51.7 32.4 45.9 0 68.9-42.7 68.9-128.2 0-84.7-23-127.1-68.9-127.1-24 0-41.4 10.6-52.2 31.8-10.7 21.3-16.1 53.1-16.1 95.3zM901.8 196.5c0-35.5 42.9-71.7 88.5-72 30.9-.3 42 8.6 53.2 13.7l-13.9 21.6c-9.7-5.1-18.8-9.2-39.9-9.9-13.3-.4-24.1 1.4-35.9 9.3-9.7 6.4-20.4 12.9-23.6 40.8-2.2 19-.8 45.9-.8 67.8V423h-28.1M1047.6 191.4c5.6-48.2 49.8-67.2 80.6-67.2 17.7 0 39.6 6.4 50.2 14.5 9.5 7.2 14.7 13.4 20.3 32.2 7.7-18 13.9-23.4 25.1-31.3 11.2-7.9 25.8-14.9 43.7-14.9 24.2 0 48.4 7.5 62.9 28.5 11.6 16.7 16.8 41 16.8 78.4V423h-27.8V223.5c.7-56.9-14.3-75.2-52-75.2-18.7 0-32.2 4.7-42.2 21.9-9.8 17-14.3 47.9-14.3 81.3v171.4h-27.8V223.5c0-24.8-3.8-43.3-11.5-55.5s-26.7-18.6-42.8-18.6c-21.3 0-35.6 10.4-45.3 28-9.7 17.6-8.6 45.1-8.6 84.6v160.9h-28.1"/><circle fill="#ACA199" cx="1412.6" cy="149.4" r="25.3"/><circle fill="#ACA199" cx="1412.6" cy="273" r="25.3"/><circle fill="#ACA199" cx="1412.6" cy="395" r="25.3"/><path fill="#ACA199" d="M1449.5 85.4c0-2.2.3-4.3.9-6.4.6-2 1.4-3.9 2.4-5.7 1-1.8 2.3-3.4 3.7-4.8 1.5-1.4 3.1-2.7 4.8-3.7 1.8-1 3.7-1.9 5.7-2.4 2-.6 4.1-.9 6.3-.9s4.3.3 6.4.9c2 .6 3.9 1.4 5.7 2.4 1.8 1 3.4 2.3 4.8 3.7 1.5 1.5 2.7 3.1 3.7 4.8 1 1.8 1.8 3.7 2.4 5.7.6 2 .8 4.2.8 6.4s-.3 4.3-.8 6.3c-.6 2-1.4 3.9-2.4 5.7-1 1.8-2.3 3.4-3.7 4.8-1.5 1.5-3.1 2.7-4.8 3.7-1.8 1-3.7 1.9-5.7 2.4-2 .6-4.2.9-6.4.9s-4.3-.3-6.3-.9c-2-.6-3.9-1.4-5.7-2.4-1.8-1-3.4-2.3-4.8-3.7-1.5-1.4-2.7-3.1-3.7-4.8-1-1.8-1.8-3.7-2.4-5.7s-.9-4.1-.9-6.3zm3.2 0c0 1.9.2 3.8.7 5.6.5 1.8 1.2 3.5 2.1 5 .9 1.6 2 3 3.2 4.2 1.2 1.3 2.6 2.3 4.2 3.3 1.5.9 3.2 1.6 4.9 2.1 1.8.5 3.6.7 5.5.7 2.9 0 5.6-.5 8.1-1.6s4.7-2.6 6.6-4.5c1.9-1.9 3.3-4.1 4.4-6.6 1.1-2.5 1.6-5.3 1.6-8.2 0-1.9-.2-3.8-.7-5.6-.5-1.8-1.2-3.5-2.1-5.1-.9-1.6-2-3-3.2-4.3-1.3-1.3-2.6-2.4-4.2-3.3-1.5-.9-3.2-1.6-5-2.1-1.8-.5-3.6-.8-5.5-.8-2.9 0-5.6.6-8.1 1.7s-4.7 2.6-6.5 4.5c-1.9 1.9-3.3 4.1-4.4 6.7-1 2.6-1.6 5.3-1.6 8.3zm17.3 2.5v7.9h-3.5V75.9h6.4c2.6 0 4.4.5 5.7 1.4 1.2.9 1.8 2.3 1.8 4.1 0 1.4-.4 2.6-1.2 3.6-.8 1-2 1.7-3.6 2 .3.1.5.3.7.6.2.2.4.5.5.8l5.1 7.4h-3.3c-.5 0-.9-.2-1.1-.6l-4.5-6.7c-.1-.2-.3-.3-.5-.4-.2-.1-.5-.2-.9-.2h-1.6zm0-2.6h2.6c.8 0 1.5-.1 2.1-.2.6-.2 1-.4 1.4-.7.3-.3.6-.7.8-1.1.2-.4.2-.9.2-1.5 0-.5-.1-1-.2-1.4-.1-.4-.4-.8-.7-1-.3-.3-.7-.5-1.3-.6-.5-.1-1.2-.2-1.9-.2h-2.9v6.7z"/></svg>